<?xml version="1.0"?>

<svg fill="currentColor" xmlns="http://www.w3.org/2000/svg" id="Layer_1" data-name="Layer 1" viewBox="0 0 1080 1080" width="1080" height="1080">
  <defs>
    
  </defs>
  <path class="cls-1" d="M994.69,553.88c-22.17-16.57-42.08-35.48-59.54-56.19,8.43-29.35,20.74-57.88,37.18-84.74,9.09-25.46,56.52-89.4,42.46-130.35-15.53-45.24-89.77-41.95-160.37-27.77.12-3.31.26-6.62.36-9.93.91-31.33,8.75-98.82-21.1-122.31-28.71-22.58-81.14,4.84-107.24,16.7-7.98,3.62-16.02,7.13-23.77,11.22-15.65,8.24-31.79,14.93-48.19,20.44-16.41-22-33.16-43.74-50.62-64.91-19.95-24.18-58.51-80.12-96.45-78.12-36.67,1.93-58.08,57.69-69.87,83.63-4.44,9.77-8.59,19.69-12.66,29.62-2.66,6.48-5.54,12.83-8.57,19.08C341.71,113.16,250.89-8.81,192.07,27.89c-39.66,24.75,9.39,118.12,41.64,184.93,8.69,18,26.33,59.72,28.96,67.49,4.3,12.71,7.53,24.96,7.53,24.96,0,0-3.32,6.43-14.45,11.31-23.06,10.59-47.44,18.8-72.86,24.15-42.43,8.93-74.99,26.45-75.46,60.88-.55,40.49,39.38,85.63,63.39,115.82-16.83,19.25-35.79,36.84-56.66,52.33-57.42,42.63-103.12,89.63-78.23,120.58,27.68,34.41,115.02,35.55,151.29,41.14,9.07,1.4,18.12,3.01,27.25,3.89,18.35,1.78,36.31,5.06,53.78,9.6,1.47,31.03-.97,62.43-7.66,93.37-15.12,69.9-18.54,135.37,20.58,142.25,42.77,7.53,107.75-47.15,139.35-67.7,15.19-9.88,30.25-19.98,45.24-30.18,13.33,19.24,100.83,176.04,146.58,176.19,76.9.26,116.49-179.55,141.7-214.14,27.68,13.72,55.41,27.35,83.43,40.38,33.92,15.78,122.51,71.09,163.08,49.93,36.21-18.89,3.15-84.17-7.21-109.49-10.74-26.25-22.61-52.09-35.22-77.59-5.73-11.58-10.65-23.42-15.03-35.4,31.51-12.53,90.53-29.82,104.58-64.13,13.1-32-13.59-65.13-52.97-94.57Z"></path>
</svg>