<?xml version="1.0"?>

<svg fill="currentColor" xmlns="http://www.w3.org/2000/svg" id="Layer_1" data-name="Layer 1" viewBox="0 0 1080 1080" width="1080" height="1080">
  <defs>
    
  </defs>
  <path class="cls-1" d="M732.67,389.14c66.79-30.27,131.23-40.2,179.09,18.86,52.17,64.38,2.86,115.92-42.12,172.13,19.41,0,29.41-.22,39.4.04,20.85.54,42.22-1.39,62.46,2.51,74.43,14.35,102.41,82.35,60.7,145.5-43.31,65.58-107.48,103.74-178.34,131.46-137.06,53.63-279.82,64.79-423.56,42.05-83.21-13.17-165.96-35.52-245.4-63.68-98.43-41.09-174.74-131.53-152.68-211.82,11.03-40.14,39.69-61.19,76.06-70.71,8.61-2.25,37.19-7.33,47.69-9.9-17.03-25.44-29.1-54.26-33.12-66.95-21.37-67.44.73-140.68,58.99-181.58,87.13-67.42,229.24,46.04,236.81,51.54,1.81-4.19,10.56-30.62,22.88-59.66s81.95-143.86,193.06-112.48c61.12,24.43,89.95,75.69,97.65,139.05,2.61,21.49.41,43.57.41,73.63Z"></path>
</svg>